<svg width="1200" height="800" viewBox="0 0 1200 800" fill="none" xmlns="http://www.w3.org/2000/svg">
  <path d="M600 400 L650 350 L700 400 L750 350 L800 400 L850 350 L900 400 L950 350 L1000 400 L1050 350 L1100 400 L1150 350 L1200 400 L1150 450 L1100 400 L1050 450 L1000 400 L950 450 L900 400 L850 450 L800 400 L750 450 L700 400 L650 450 L600 400 L550 450 L500 400 L450 450 L400 400 L350 450 L300 400 L250 450 L200 400 L150 450 L100 400 L50 450 L0 400 L50 350 L100 400 L150 350 L200 400 L250 350 L300 400 L350 350 L400 400 L450 350 L500 400 L550 350 L600 400" stroke="white" stroke-width="2" fill="none"/>
  <path d="M600 200 L650 150 L700 200 L750 150 L800 200 L850 150 L900 200 L950 150 L1000 200 L1050 150 L1100 200 L1150 150 L1200 200 L1150 250 L1100 200 L1050 250 L1000 200 L950 250 L900 200 L850 250 L800 200 L750 250 L700 200 L650 250 L600 200 L550 250 L500 200 L450 250 L400 200 L350 250 L300 200 L250 250 L200 200 L150 250 L100 200 L50 250 L0 200 L50 150 L100 200 L150 150 L200 200 L250 150 L300 200 L350 150 L400 200 L450 150 L500 200 L550 150 L600 200" stroke="white" stroke-width="2" fill="none"/>
  <path d="M600 600 L650 550 L700 600 L750 550 L800 600 L850 550 L900 600 L950 550 L1000 600 L1050 550 L1100 600 L1150 550 L1200 600 L1150 650 L1100 600 L1050 650 L1000 600 L950 650 L900 600 L850 650 L800 600 L750 650 L700 600 L650 650 L600 600 L550 650 L500 600 L450 650 L400 600 L350 650 L300 600 L250 650 L200 600 L150 650 L100 600 L50 650 L0 600 L50 550 L100 600 L150 550 L200 600 L250 550 L300 600 L350 550 L400 600 L450 550 L500 600 L550 550 L600 600" stroke="white" stroke-width="2" fill="none"/>
  <circle cx="200" cy="200" r="10" fill="white" opacity="0.5"/>
  <circle cx="400" cy="300" r="15" fill="white" opacity="0.5"/>
  <circle cx="600" cy="250" r="12" fill="white" opacity="0.5"/>
  <circle cx="800" cy="350" r="8" fill="white" opacity="0.5"/>
  <circle cx="1000" cy="400" r="10" fill="white" opacity="0.5"/>
  <circle cx="300" cy="500" r="12" fill="white" opacity="0.5"/>
  <circle cx="500" cy="450" r="8" fill="white" opacity="0.5"/>
  <circle cx="700" cy="550" r="15" fill="white" opacity="0.5"/>
  <circle cx="900" cy="500" r="10" fill="white" opacity="0.5"/>
  <circle cx="1100" cy="600" r="12" fill="white" opacity="0.5"/>
</svg>
